/* XPM */
static char *digikam[] = {
/* columns rows colors chars-per-pixel */
"32 32 189 2 ",
"   c #0E0E0E",
".  c #0F0F10",
"X  c #141414",
"o  c #171718",
"O  c #1C1C1D",
"+  c #1E1F20",
"@  c #1F2021",
"#  c #172228",
"$  c #19252D",
"%  c #152631",
"&  c #192731",
"*  c #142937",
"=  c #1A2932",
"-  c #152D3E",
";  c #1A2F3C",
":  c #19303C",
">  c #232424",
",  c #242728",
"<  c #26292A",
"1  c #2B2C2C",
"2  c #2D2F30",
"3  c #2F3031",
"4  c #273139",
"5  c #2B343A",
"6  c #333435",
"7  c #353738",
"8  c #36383A",
"9  c #3B3B3C",
"0  c #163244",
"q  c #1B3445",
"w  c #1A374A",
"e  c #1C3A4D",
"r  c #1D3D53",
"t  c #2D3940",
"y  c #213A4C",
"u  c #363E44",
"i  c #3D3F40",
"p  c #213E51",
"a  c #1D4057",
"s  c #3E4142",
"d  c #34424A",
"f  c #214055",
"g  c #23455C",
"h  c #364956",
"j  c #3E4B55",
"k  c #224761",
"l  c #254A63",
"z  c #2A4D65",
"x  c #294F69",
"c  c #2B536D",
"v  c #3E5463",
"b  c #34556A",
"n  c #3A5A6F",
"m  c #2C5672",
"M  c #325A74",
"N  c #3F5F74",
"B  c #345E7A",
"V  c #3C637D",
"C  c #434444",
"Z  c #45494B",
"A  c #4B4C4C",
"S  c #4C4E51",
"D  c #4E5154",
"F  c #435059",
"G  c #535354",
"H  c #545658",
"J  c #55595B",
"K  c #5B5B5B",
"L  c #5D5F61",
"P  c #5F6164",
"I  c #52646F",
"U  c #436174",
"Y  c #4F6574",
"T  c #4A677B",
"R  c #4F6879",
"E  c #636464",
"W  c #63676A",
"Q  c #66696C",
"!  c #6D6D6D",
"~  c #626A70",
"^  c #63747F",
"/  c #737373",
"(  c #7C7C7C",
")  c #3C6681",
"_  c #3D6884",
"`  c #3F6B88",
"'  c #436A83",
"]  c #4B6F87",
"[  c #456E89",
"{  c #516F86",
"}  c #47718C",
"|  c #4B738C",
" . c #517187",
".. c #5F7B8D",
"X. c #4A7592",
"o. c #4D7894",
"O. c #517A95",
"+. c #5F7F95",
"@. c #507C99",
"#. c #747E86",
"$. c #55819E",
"%. c #5A829C",
"&. c #6E828F",
"*. c #658091",
"=. c #6C8493",
"-. c #6A899D",
";. c #788A95",
":. c #5783A0",
">. c #5B85A1",
",. c #5B88A4",
"<. c #5F8BA8",
"1. c #6187A1",
"2. c #618AA5",
"3. c #6C8EA5",
"4. c #628DAA",
"5. c #6591AE",
"6. c #7491A5",
"7. c #7992A2",
"8. c #7295AC",
"9. c #7F99AA",
"0. c #6C96B3",
"q. c #6F99B4",
"w. c #6E9AB9",
"e. c #739BB5",
"r. c #719DBB",
"t. c #789FB9",
"y. c #76A1BE",
"u. c #7AA3BE",
"i. c #7CA5C2",
"p. c #7EA9C6",
"a. c #868686",
"s. c #8B8B8B",
"d. c #818D96",
"f. c #80939F",
"g. c #949494",
"h. c #8297A6",
"j. c #8D9CA7",
"k. c #909CA5",
"l. c #95A4AE",
"z. c #83A0B3",
"x. c #85A7BE",
"c. c #88A6BA",
"v. c #90A6B4",
"b. c #92ABBA",
"n. c #98ACB9",
"m. c #A0A0A0",
"M. c #A8A8A8",
"N. c #A4B2BD",
"B. c #89ADC5",
"V. c #82ADCA",
"C. c #90AFC3",
"Z. c #85B0CC",
"A. c #8BB2CD",
"S. c #9CB4C5",
"D. c #92B4CA",
"F. c #9CB7C9",
"G. c #8DB6D2",
"H. c #8FB8D3",
"J. c #93BAD5",
"K. c #9BBDD3",
"L. c #96BEDA",
"P. c #9BBFD8",
"I. c #A4BDCE",
"U. c #AABECD",
"Y. c #A0BDD0",
"T. c #9CC2DB",
"R. c #A4C1D5",
"E. c #A3C5DB",
"W. c #A9C7DC",
"Q. c #A5C8DE",
"!. c #B8C9D6",
"~. c #B4CBDB",
"^. c #9CC4E0",
"/. c #A6CAE2",
"(. c #AACDE4",
"). c #ADD0E6",
"_. c #ADD1E9",
"`. c #B4D0E4",
"'. c #B4D4EA",
"]. c #BEDBEF",
"[. c #C2D3DF",
"{. c #C8DFEE",
"}. c #C2DEF1",
"|. c #CDE0ED",
" X c #D2E1EC",
".X c #CEE4F3",
"XX c #D6EBF9",
"oX c #E0F0FA",
"OX c None",
/* pixels */
"OXOXOXOXOXOXOXOXOXOXOXOXOXOXOXOXOXOXOXOXOXOXOXOXOXOXOXOXOXOXOXOX",
"OXOXOXOXOXOXOXOXOXOXOXO 9 Z S H K G A C OXOXOXOXOXOXOXOXOXOXOXOX",
"OXOXOXOXOXOXOXOXOX3 C G A s 8 1 6 9 Z L Q H 7 OXOXOXOXOXOXOXOXOX",
"OXOXOXOXOXOXOX> 9 C 6 > > C E Z 1 1 1 X @ s E G 1 OXOXOXOXOXOXOX",
"OXOXOXOXOXOX1 8 1 o A m./ s./ K 8 7 L / K 3 X C H 6 OXOXOXOXOXOX",
"OXOXOXOXOX2 3 O G a.g.K C s j v h d u i K E K   2 H 9 OXOXOXOXOX",
"OXOXOXOX1 1 X 6 M.G E ^ -.1.O.| [ ' V U j 9 9 ! X + S 1 OXOXOXOX",
"OXOXOXO > o + 1 7 D n.F.x.e.4.$.O.o.} ] { I Z A L . < C > OXOXOX",
"OXOXOX1 + 6 C 6 Q !.[.~.K.B.i.w.5.4.>.%.*.*.&.D 1 + @ 7 9 OXOXOX",
"OXOX> >   K 9 D I.[. X{.`.J.p.q.5.>.>.8.8.7.f.d.C A A . i 1 OXOX",
"OXOX> o C G 7 =.S.~. XoX|.).T.H.Z.p.u.8.z.v.l.k.#.8 K C 1 8 OXOX",
"OX@ O > G 7 F 3.c.I.`..XXX]./.T.J.A.B.C.b.N.N.j.;.J 7 E > 9 OXOX",
"OX> + C ! 1 T +.8.B.K.'.|.].'./.T.K.K.F.U.N.n.h.&.I 8 A 1 6 1 OX",
"OX> o > 6 6 N | 1.0.J.T.).'._.)./.Q.W.R.R.S.h.7...R 7 A 6 > 6 OX",
"OX> X A 1 5 b U O.4.V.H.T./._.T.E.Q.W.R.F.C.6.-. .U u 7 9 > 1 OX",
"OX> X X O 5 z n } %.r.p.G.T.L.T.K.E.(.R.D.x.4.%.T n d C G O 1 OX",
"OX> X   @ 4 f x V X.0.w.p.L.H.T.T.T./.K.B.t.>.o.V b 5 G K o 1 OX",
"OX, o   O 2 y g m ) :.4.w.p.G.T.T.T.L.A.i.q.o.[ M z 7 C A O 1 OX",
"OX< O G C 1 ; r l c o.:.0.i.Z.G.L.H.G.u.0.,.` ) M z 7 K C > 1 OX",
"OX> >   6 1 & q a x V X.:.<.0.i.p.i.r.0.,.X._ M z g 6 E s 1 1 OX",
"OX> 1 > 9 > 1 ; e g l V } o.,.4.4.4.<.:.o.) V m l 5 G E X 1 > OX",
"OXOX1 + 1 C 1 $ : w g l M _ } } X.o.X.` ) m m x y 8 / G > 3 OXOX",
"OXOX1 6 O X > 1 $ : w p g l c B B M m m c l l a 8 C C < 1 1 OXOX",
"OXOXOX8 <   @ > 2 $ ; q w r a a k k k k k k a 5 s C 1 > 3 OXOXOX",
"OXOXOX1 9 o o > 1 1 # & ; q 0 w w r r r e q 6 C C 6 O 6 > OXOXOX",
"OXOXOXOX7 C X o 1 6 8 , # $ * - - 0 0 = 4 9 A Z 9 O 8 1 OXOXOXOX",
"OXOXOXOXOX9 A @ o L E 6 1 3 , > < < 1 7 G / g.C @ 9 6 OXOXOXOXOX",
"OXOXOXOXOXOX9 G 7 @ S ! G J A A W Q / / a.K > 6 s 6 OXOXOXOXOXOX",
"OXOXOXOXOXOXOX8 G J 7 o 8 W a.a.( / / 7 > 6 A C 1 OXOXOXOXOXOXOX",
"OXOXOXOXOXOXOXOXOXC J Q K C 8 9 3 8 i D H S 8 OXOXOXOXOXOXOXOXOX",
"OXOXOXOXOXOXOXOXOXOXOX6 C J L P P J G C 3 OXOXOXOXOXOXOXOXOXOXOX",
"OXOXOXOXOXOXOXOXOXOXOXOXOXOXOXOXOXOXOXOXOXOXOXOXOXOXOXOXOXOXOXOX"
};
