/* XPM */
static char *digikam[] = {
/* columns rows colors chars-per-pixel */
"32 32 203 2 ",
"   c #040404",
".  c #0C0C0C",
"X  c #131414",
"o  c #121619",
"O  c #151A1D",
"+  c #1C1C1C",
"@  c #121B24",
"#  c #131F2A",
"$  c #1E2224",
"%  c #12222E",
"&  c #18242E",
"*  c #1F282D",
"=  c #142532",
"-  c #192632",
";  c #162836",
":  c #182C36",
">  c #162A3A",
",  c #1A2D3B",
"<  c #242424",
"1  c #222629",
"2  c #212A2E",
"3  c #2D2D2D",
"4  c #2A2E31",
"5  c #253238",
"6  c #333334",
"7  c #3B3C3C",
"8  c #403F3F",
"9  c #40403F",
"0  c #1A2F42",
"q  c #173043",
"w  c #1B3344",
"e  c #1B354A",
"r  c #1B3849",
"t  c #0C3250",
"y  c #103756",
"u  c #1D3B52",
"i  c #143D5E",
"p  c #1F3F59",
"a  c #253842",
"s  c #2C3D45",
"d  c #3E3F40",
"f  c #203E57",
"g  c #213E59",
"h  c #1D4052",
"j  c #1E425C",
"k  c #22404F",
"l  c #3C484E",
"z  c #2F4957",
"x  c #24425D",
"c  c #314A58",
"v  c #1B4464",
"b  c #1E4C6C",
"n  c #254663",
"m  c #284763",
"M  c #244965",
"N  c #284964",
"B  c #234C6A",
"V  c #294D6C",
"C  c #26516D",
"Z  c #2B526E",
"A  c #2C4F71",
"S  c #224F78",
"D  c #245274",
"F  c #2D5473",
"G  c #2E5976",
"H  c #2B5579",
"J  c #2C597A",
"K  c #335D75",
"L  c #3A5E71",
"P  c #315E7D",
"I  c #32607F",
"U  c #38637D",
"Y  c #434343",
"T  c #474849",
"R  c #4C4C4C",
"E  c #545454",
"W  c #585757",
"Q  c #585857",
"!  c #5C5B5B",
"~  c #605F5F",
"^  c #4F616A",
"/  c #646464",
"(  c #686867",
")  c #676768",
"_  c #686768",
"`  c #6B6B6B",
"'  c #636E74",
"]  c #706F70",
"[  c #747474",
"{  c #7C7C7C",
"}  c #2A5A85",
"|  c #2C5B88",
" . c #2F608D",
".. c #356383",
"X. c #3A6286",
"o. c #3D6986",
"O. c #366089",
"+. c #38678A",
"@. c #3B6989",
"#. c #366896",
"$. c #3B6B97",
"%. c #3B6D9B",
"&. c #3D709C",
"*. c #466C83",
"=. c #4A6C83",
"-. c #446C8E",
";. c #4B718D",
":. c #537282",
">. c #597687",
",. c #5E7989",
"<. c #416F9A",
"1. c #457395",
"2. c #4B7694",
"3. c #42729A",
"4. c #527994",
"5. c #5C7D90",
"6. c #527C9B",
"7. c #4877A0",
"8. c #4579A6",
"9. c #4C7EA6",
"0. c #4A7BA9",
"q. c #527FA7",
"w. c #527FAB",
"e. c #5D829D",
"r. c #64839B",
"t. c #6B889E",
"y. c #718D9C",
"u. c #4E81AD",
"i. c #5583A4",
"p. c #5A83A3",
"a. c #5282AC",
"s. c #5A86AD",
"d. c #5988AC",
"f. c #5285B4",
"g. c #5788B6",
"h. c #5A89B4",
"j. c #5A8DBC",
"k. c #6489A5",
"l. c #6A8BA5",
"z. c #6E90AD",
"x. c #7F93A1",
"c. c #7393AA",
"v. c #7B95AC",
"b. c #7D9AAE",
"n. c #648FB7",
"m. c #618EBB",
"M. c #6A94B2",
"N. c #6494BA",
"B. c #6993BC",
"V. c #7296B5",
"C. c #759ABC",
"Z. c #7E9EB9",
"A. c #5F92C0",
"S. c #6594C2",
"D. c #6B96C1",
"F. c #6598C6",
"G. c #6A9AC4",
"H. c #7CA4C3",
"J. c #72A2CE",
"K. c #7EA6CC",
"L. c #7EABD5",
"P. c #848484",
"I. c #8397A7",
"U. c #869AAD",
"Y. c #839AB1",
"T. c #8B9EB4",
"R. c #8BA2B6",
"E. c #86A3BC",
"W. c #93A9BC",
"Q. c #87AAC5",
"!. c #8CACC3",
"~. c #83A7CB",
"^. c #99AEC0",
"/. c #9CB3C2",
"(. c #9AB8CE",
"). c #85ADD3",
"_. c #8DAFD1",
"`. c #8DB1D5",
"'. c #96B8D9",
"]. c #9BBCDC",
"[. c #A5BBCB",
"{. c #A4BED7",
"}. c #A2BEDA",
"|. c #A7C3DF",
" X c #B8C6D1",
".X c #BCCBD7",
"XX c #B2C7DA",
"oX c #BECDD8",
"OX c #A9C5E1",
"+X c #B2C9E2",
"@X c #B8CEE4",
"#X c #BED2E7",
"$X c #BED3E9",
"%X c #C0CBD4",
"&X c #C6D1DA",
"*X c #CED6DE",
"=X c #C0D2E5",
"-X c #CCD9E6",
";X c #C7D9EC",
":X c #D8E2EC",
">X c #E1E6E8",
",X c #ECEDEF",
"<X c None",
/* pixels */
"<X<X<X<X<X<X<X<X<X<X<X<X<X<X<X<X<X<X<X<X<X<X<X<X<X<X<X<X<X<X<X<X",
"<X<X<X<X<X<X<X<X<X<X<X<X. 1 7 Y Y 7 3 . <X<X<X<X<X<X<X<X<X<X<X<X",
"<X<X<X<X<X<X<X<X<X<X6 E ` ( ! E E Q / ` E 6 <X<X<X<X<X<X<X<X<X<X",
"<X<X<X<X<X<X<X<X3 ~ ~ Y + X X . X . X + 7 / / 6 <X<X<X<X<X<X<X<X",
"<X<X<X<X<X<X  T ( 6 + 3 R ] E 7 7 9 [ R 6 . 6 ` E . <X<X<X<X<X<X",
"<X<X<X<X<X. E Q $ 6 ( ( R 6 2 $ 1 4 6 9 ` [ 6 X E / X <X<X<X<X<X",
"<X<X<X<X  R R + R ] ! + O % > r u h k a * 6 ( Q + R ~ . <X<X<X<X",
"<X<X<X<X7 E < 6 R 6 o % q u j M C G U *.:.l 3 ! R < Q E <X<X<X<X",
"<X<X<X< E < ! ! 6 o ; e j B F J U @.2.4.r.I.' + ( E + ) 6 <X<X<X",
"<X<X<XT 7 T ] 7 o ; e n Z b b C I @.4.l.x.I.I.^ 6 / + 6 ( . <X<X",
"<X<X< T 3 ] Q o - r n V j b H +.i.e.r.r.T.U.t.e.s 3 E 3 ~ 7 <X<X",
"<X<X7 6 ~ [ 3 # e x V i P 1.+.6.M.Z.R.W.U.l.e.;.L $ / Y 7 E <X<X",
"<X  Y 6 ( ` O , g F i D 3.i.2.M.Q.^.*X*XW.2.4.o.K : W ` < ( . <X",
"<XX 8 Y / T @ u A H S J 7.B.i.H.E.oX,X>X[.e.@.@.Z w 3 ` 3 / 3 <X",
"<X+ 7 T ] d = n O.} #.0.&.F.d.4.R..X&X Xc.o.J I C r 1 ] 3 E 7 <X",
"<X< 7 R ! 7 , H <.#.0.j.F.h.7.p.%X.X(.!.k.+.b G M r 1 Q 7 E T <X",
"<X< 6 E ( 7 w ..0.0.g.F.J.).s.q.c.k.p.M.i.+.v F x q 1 ( Y R T <X",
"<X+ 6 ! P.Y w -.h.m.S.~.`.{.~.w.&.i.d.+.2.H v V j ; 3 ] 6 E 7 <X",
"<XX 3 T ] ! , ;.B.~.).].=X:X@XK.G.u.N.+.B v n m e @ 7 ] 6 ! 3 <X",
"<X  6 8 ` ] 3 U V.'.].OX=X-X{.L.A.8.9.1.b t V f , O E ~ 6 ( . <X",
"<X<X< 6 ` { 7 c c.{.=X$X+X}.'.J.f.&.&.H y n g w & < [ E 7 R <X<X",
"<X<XX 3 E _ / 2 >./.=X;XOX`.K.S.8. .S i n m 0 = X R R 7 E 6 <X<X",
"<X<X<X3 6 _ _ E 5 y./.XXOX`.D.a.%.| H A x w - X 7 Q T 7 E . <X<X",
"<X<X<XX 3 T ` ` T 5 ,.Y.Z.C.n.w.&.O.V u 0 & X 7 Q E 6 E 3 <X<X<X",
"<X<X<X<X< 3 E ` ` E 2 c =.4.;.X.H n u > @ X Y ! Q Y T Y <X<X<X<X",
"<X<X<X<X  3 3 E ( ] { 7 2 : w w > % @ + 6 ( { Q Y 7 T . <X<X<X<X",
"<X<X<X<X<X  3 6 Y ` { P._ ! T 7 Y T E ] [ [ / 9 Y Y . <X<X<X<X<X",
"<X<X<X<X<X<X  < 6 6 R ` ] [ { P.[ { { _ _ T 6 Y 7   <X<X<X<X<X<X",
"<X<X<X<X<X<X<X<XX 3 3 6 8 E ! ~ ! ! R Y 6 7 7 < <X<X<X<X<X<X<X<X",
"<X<X<X<X<X<X<X<X<X<X+ < 6 3 3 6 6 3 3 7 3 +   <X<X<X<X<X<X<X<X<X",
"<X<X<X<X<X<X<X<X<X<X<X<X  X + + + + X   <X<X<X<X<X<X<X<X<X<X<X<X",
"<X<X<X<X<X<X<X<X<X<X<X<X<X<X<X<X<X<X<X<X<X<X<X<X<X<X<X<X<X<X<X<X"
};
