/* XPM */
static char *showfoto[] = {
/* columns rows colors chars-per-pixel */
"32 32 255 2 ",
"   c #0E0E0E",
".  c #0F0F10",
"X  c #141414",
"o  c #171718",
"O  c #1C1C1D",
"+  c #351A0D",
"@  c #3C1C0D",
"#  c #2E1C13",
"$  c #331E14",
"%  c #29221F",
"&  c #392010",
"*  c #1E1F20",
"=  c #1F2121",
"-  c #232424",
";  c #2C2623",
":  c #262728",
">  c #272829",
",  c #2B2C2C",
"<  c #302420",
"1  c #312B27",
"2  c #3C2B23",
"3  c #312D2C",
"4  c #3D2F28",
"5  c #36322E",
"6  c #3C3028",
"7  c #2E2F30",
"8  c #2F3031",
"9  c #333434",
"0  c #3B3430",
"q  c #3A3936",
"w  c #353738",
"e  c #37383A",
"r  c #3B3C3C",
"t  c #441E0C",
"y  c #491D0B",
"u  c #471F12",
"i  c #44220E",
"p  c #4D220B",
"a  c #5E2507",
"s  c #5E2806",
"d  c #54250B",
"f  c #5A2308",
"g  c #5E2A0B",
"h  c #432110",
"j  c #4C2610",
"k  c #522412",
"l  c #552912",
"z  c #5D2B12",
"x  c #652B06",
"c  c #6B2E06",
"v  c #602709",
"b  c #632D0C",
"n  c #6B2F0B",
"m  c #702F05",
"M  c #6E3005",
"N  c #6D340A",
"B  c #723205",
"V  c #7C3A06",
"C  c #72350C",
"Z  c #77380F",
"A  c #7E3B0A",
"S  c #633015",
"D  c #6B3311",
"F  c #753B11",
"G  c #7F3F11",
"H  c #412E24",
"J  c #433123",
"K  c #4F3723",
"L  c #483928",
"P  c #503B2E",
"I  c #5C3D29",
"U  c #453D34",
"Y  c #774413",
"T  c #7F4310",
"R  c #7B4813",
"E  c #7F4B1D",
"W  c #7E5012",
"Q  c #725A16",
"!  c #7F5A12",
"~  c #7A581A",
"^  c #44422C",
"/  c #4C462F",
"(  c #5E4923",
")  c #5A432A",
"_  c #544D2C",
"`  c #575129",
"'  c #44423A",
"]  c #6B4628",
"[  c #605522",
"{  c #6F6524",
"}  c #3D3F40",
"|  c #3F4242",
" . c #434344",
".. c #47494B",
"X. c #4B4B4B",
"o. c #4C4E50",
"O. c #4F5153",
"+. c #535354",
"@. c #545658",
"#. c #56595B",
"$. c #5B5C5C",
"%. c #5D5F61",
"&. c #5F6164",
"*. c #636464",
"=. c #63676A",
"-. c #66696C",
";. c #6A6A6A",
":. c #747474",
">. c #7A7A7A",
",. c #823E05",
"<. c #8A4507",
"1. c #84420A",
"2. c #89440D",
"3. c #8C4B0F",
"4. c #924B07",
"5. c #934F0B",
"6. c #975208",
"7. c #98520C",
"8. c #844510",
"9. c #834F11",
"0. c #8B4913",
"q. c #874B1B",
"w. c #8E4C1A",
"e. c #904E12",
"r. c #8C5210",
"t. c #8C5D12",
"y. c #8D5D19",
"u. c #995714",
"i. c #9B5D12",
"p. c #95521B",
"a. c #925919",
"s. c #9D5A19",
"d. c #A15C0D",
"f. c #A25D12",
"g. c #A25D1C",
"h. c #9F6014",
"j. c #936911",
"k. c #9C6C17",
"l. c #857813",
"z. c #947413",
"x. c #9C7A11",
"c. c #A3620E",
"v. c #A06F0E",
"b. c #B26F0D",
"n. c #AE710F",
"m. c #AD7F0D",
"M. c #B1710E",
"N. c #B8760B",
"B. c #BA7F0A",
"V. c #A46315",
"C. c #AD6716",
"Z. c #A36B15",
"A. c #AC6B12",
"S. c #A76019",
"D. c #AA651A",
"F. c #A46B1A",
"G. c #AD6A1A",
"H. c #B26C14",
"J. c #B46F1D",
"K. c #A57515",
"L. c #AC7311",
"P. c #A47C14",
"I. c #B47115",
"U. c #B97317",
"Y. c #BE7D17",
"T. c #B67219",
"R. c #BA751B",
"E. c #B57F1C",
"W. c #BC7D1A",
"Q. c #836C20",
"!. c #C27D19",
"~. c #958312",
"^. c #9E8712",
"/. c #AD890A",
"(. c #B4820E",
"). c #BE960C",
"_. c #BD9C0F",
"`. c #A58214",
"'. c #A78A12",
"]. c #AC8018",
"[. c #BC8411",
"{. c #B78F14",
"}. c #A49310",
"|. c #AD9B11",
" X c #B59714",
".X c #B9A10F",
"XX c #BEAA0D",
"oX c #B8A113",
"OX c #BAA910",
"+X c #C88D07",
"@X c #C0800A",
"#X c #C2940D",
"$X c #C9960E",
"%X c #C38117",
"&X c #C78817",
"*X c #CB8B16",
"=X c #C5841B",
"-X c #C9871B",
";X c #C68B18",
":X c #CC8D1C",
">X c #D18F18",
",X c #CC9713",
"<X c #C69C16",
"1X c #C49119",
"2X c #CE931A",
"3X c #CE9E18",
"4X c #D19217",
"5X c #D59A14",
"6X c #D2951D",
"7X c #D4981D",
"8X c #DA9D1C",
"9X c #C7A609",
"0X c #CAA80C",
"qX c #D3A407",
"wX c #D6A807",
"eX c #DBAB07",
"rX c #D3A70B",
"tX c #DAA40C",
"yX c #D2AA0A",
"uX c #DBAB0C",
"iX c #CDB109",
"pX c #DFBE06",
"aX c #D9BD09",
"sX c #CDA515",
"dX c #C6A816",
"fX c #CFAF16",
"gX c #D4A513",
"hX c #DBA411",
"jX c #D3AD16",
"kX c #DCAA12",
"lX c #D7A51C",
"zX c #DAA31D",
"xX c #DDAA1B",
"cX c #CDB117",
"vX c #D4B016",
"bX c #DBB115",
"nX c #E4B30C",
"mX c #E5BB0A",
"MX c #E8BC09",
"NX c #E1AC1E",
"BX c #E1B312",
"VX c #E3B71C",
"CX c #DDA324",
"ZX c #DCCB06",
"AX c #D3C008",
"SX c #EBC407",
"DX c #EBCA05",
"FX c #E7D206",
"GX c #ECD203",
"HX c #E6D804",
"JX c #F1D803",
"KX c #F2E101",
"LX c #848484",
"PX c #8B8B8B",
"IX c None",
/* pixels */
"IXIXIXIXIXIXIXIXIXIXIXIXIXIXIXIXIXIXIXIXIXIXIXIXIXIXIXIXIXIXIXIX",
"IXIXIXIXIXIXIXIXIXIXIX* r ..o.#.#.+.o. .IXIXIXIXIXIXIXIXIXIXIXIX",
"IXIXIXIXIXIXIXIXIX8 | O.o.} e 3 9 } ..%.-.#.e IXIXIXIXIXIXIXIXIX",
"IXIXIXIXIXIXIX- | | 8 # 7 @.=.%., , - X * | *.+., IXIXIXIXIXIXIX",
"IXIXIXIXIXIX, e , X  .>.;.LX*.*.e 9 o.>.O.; -  .#.9 IXIXIXIXIXIX",
"IXIXIXIXIX7 8 O  .>.PX@. .U ) ] I P U r %.;.*.. , @.e IXIXIXIXIX",
"IXIXIXIX> , X } >.@.' Q.P.L.V.s.p.w.q.E ) q ' | - = o.7 IXIXIXIX",
"IXIXIX* > o # X.+._ .X0X#X[.I.C.S.g.s.a.y.~ / X.:.X >  .- IXIXIX",
"IXIXIX, # 9 | 9 { aXZXaXrX$X*X!.R.J.G.F.k.z.z.` , O   5 r IXIXIX",
"IXIX: = . #.} _ iXZXHXFXmXqX+X@XN.b.I.E.].`.^.~.^ e ..= } , IXIX",
"IXIX: o  .+.9 x.9XaXFXKXDXnXtX5X4X:X;Xm. X X|.}.l.q *.| , e IXIX",
"IX* O - +.9 ( /.).yXpXFXJXMXnXhX5X5X,X<X_.OXOX}.x.` ; ;.- e IXIX",
"IX- *  .;., t.v.(.$XqXMXDXSXMXnXkXgXgXjXfXXXoX'.z.Q 9 ..- 8 3 IX",
"IX- O - 9 5 R h.L.(.5XeXnXMXMXnXBXbXbXvXfXdX/.P.j.t.5 $.o.: 8 IX",
"IX- o X., 6 Y r.V.M.*X5XtXnXnXeXeXBXbXvXsX<X/.K.t.W L e - * 8 IX",
"IX- X . O 2 D 8.u.C.=X>X5XhXtXeXwXkXVXjX3X1Xn.v.r.R K X.$.O 8 IX",
"IX* X . = 2 z Z 0.f.R.!.>X8XhXkXkXkXVXlX2X;XZ.h.3.Y J X.+.o 7 IX",
"IX: X   # 3 k D G 5.S.R.%X2X7XCXxXNXzX6X&XW.c.u.8.C 4 X.%.# 7 IX",
"IX> * +. .7 u z D A g.G.R.-X6X7XCX8X6X&X!.I.6.e.T D 5 +.r = , IX",
"IX: - . 7 > $ j b Z 0.s.C.T.!.-X:X-X=XY.H.d.5.2.F S 9 :.} > , IX",
"IX: > : | - ; & k b C 0.u.f.G.T.R.R.H.H.f.4.2.A C H X.#.O , = IX",
"IXIX, * > ' , & u d b C 1.r.u.i.f.f.f.7.<.<.A Z l w *.X.= 7 IXIX",
"IXIX, 9 O o - 1 + i d g N M V 1.1.<.,.,.V C Z b 0 ..*.r , , IXIX",
"IXIXIXw :   * : 1 & i p f s x x M B m m B n g 6  .| , : 8 IXIXIX",
"IXIXIX, } O X - > 3 # + t p f f f a g b v j 5  . .0 O 9 - IXIXIX",
"IXIXIXIX9  .X O , e 5 ; + + @ t y y y @ 2 e X.X.e O e , IXIXIXIX",
"IXIXIXIXIXr ..* O >.X.9 , 3 ; % < 1 3 9 X.:.LXe = r 9 IXIXIXIXIX",
"IXIXIXIXIXIXr O.9 : &.+.&.#.@...>.*.*.LXLX;.O 9 | 9 IXIXIXIXIXIX",
"IXIXIXIXIXIXIXe +.#.w o X.*.=.PX>.>.X.r O 9 .. ., IXIXIXIXIXIXIX",
"IXIXIXIXIXIXIXIXIX| $.=.#. .e r , e } +.#.o.e IXIXIXIXIXIXIXIXIX",
"IXIXIXIXIXIXIXIXIXIXIX9 X.#.%.&.&.#.+. .7 IXIXIXIXIXIXIXIXIXIXIX",
"IXIXIXIXIXIXIXIXIXIXIXIXIXIXIXIXIXIXIXIXIXIXIXIXIXIXIXIXIXIXIXIX"
};
