/* XPM */
static char *showfoto[] = {
/* columns rows colors chars-per-pixel */
"32 32 191 2 ",
"   c #040404",
".  c #0C0C0C",
"X  c #1C140F",
"o  c #141413",
"O  c #1B1611",
"+  c #1D1916",
"@  c gray11",
"#  c #2A1A0D",
"$  c #241912",
"%  c #2C1C10",
"&  c #2A1F18",
"*  c #37210F",
"=  c #3F250F",
"-  c #2F2217",
";  c #26221C",
":  c #2C231A",
">  c #352213",
",  c #3B2514",
"<  c #3F2A14",
"1  c #3A2718",
"2  c #3E281A",
"3  c #242424",
"4  c #282523",
"5  c #2D2824",
"6  c #2D2D2D",
"7  c #343434",
"8  c #353538",
"9  c #3C3B3B",
"0  c #462006",
"q  c #41270E",
"w  c #4B2509",
"e  c #4D2E0F",
"r  c #52270B",
"t  c #542A0C",
"y  c #5C2F0D",
"u  c #5F310F",
"i  c #402612",
"p  c #452A14",
"a  c #4A2C14",
"s  c #432B1A",
"d  c #4C2F1B",
"f  c #453117",
"g  c #4D311D",
"h  c #4E3E1F",
"j  c #553113",
"k  c #5C3415",
"l  c #53331C",
"z  c #5A3418",
"x  c #5E381A",
"c  c #64340E",
"v  c #623513",
"b  c #693614",
"n  c #663916",
"m  c #6A3B14",
"M  c #613718",
"N  c #633A1C",
"B  c #6A3B1B",
"V  c #743B15",
"C  c #7C3E15",
"Z  c #543622",
"A  c #5A3922",
"S  c #413F3E",
"D  c #623D23",
"F  c #6E431B",
"G  c #734217",
"H  c #77431D",
"J  c #7A451C",
"K  c #77491C",
"L  c #7D4A1D",
"P  c #664025",
"I  c #6C4121",
"U  c #694328",
"Y  c #734523",
"T  c #794625",
"R  c #7D4D23",
"E  c #7E4E29",
"W  c #685126",
"Q  c #7E5022",
"!  c #7E5B27",
"~  c #725F30",
"^  c #434343",
"/  c #4B4B4B",
"(  c #535353",
")  c #575758",
"_  c #5B5B5C",
"`  c #646464",
"'  c #6B6B6B",
"]  c #6F6F70",
"[  c #737373",
"{  c #7D7D7D",
"}  c #844316",
"|  c #894C16",
" . c #834A1E",
".. c #8B4E1F",
"X. c #944E1D",
"o. c #90551D",
"O. c #9A511D",
"+. c #95591F",
"@. c #844C23",
"#. c #894C21",
"$. c #825423",
"%. c #8A5B23",
"&. c #8C562E",
"*. c #8B5C2B",
"=. c #955426",
"-. c #985525",
";. c #9B5C20",
":. c #8A5A36",
">. c #9B5D31",
",. c #A45B24",
"<. c #AD5F25",
"1. c #A25C29",
"2. c #8C622E",
"3. c #9C6323",
"4. c #9E6D26",
"5. c #96642B",
"6. c #936334",
"7. c #9C6432",
"8. c #936A32",
"9. c #996A36",
"0. c #986039",
"q. c #99683E",
"w. c #967037",
"e. c #9C713A",
"r. c #9C7E3F",
"t. c #AC6024",
"y. c #A5632B",
"u. c #AD632B",
"i. c #AD682D",
"p. c #BC6D2E",
"a. c #A77329",
"s. c #A96534",
"d. c #AD6936",
"f. c #A06C3E",
"g. c #B16830",
"h. c #A67938",
"j. c #BA7336",
"k. c #BD7935",
"l. c #B5743D",
"z. c #BC753B",
"x. c #C3722F",
"c. c #C27130",
"v. c #CA7935",
"b. c #C97D39",
"n. c #D17E37",
"m. c #D07F3A",
"M. c #A77745",
"N. c #A37E42",
"B. c #A87846",
"V. c #AB754A",
"C. c #AE7A4C",
"Z. c #B37846",
"A. c #A8853F",
"S. c #B68C36",
"D. c #BF873B",
"F. c #CF833C",
"G. c #C78A3C",
"H. c #D18A3D",
"J. c #DC893F",
"K. c #A38344",
"L. c #A88447",
"P. c #AA8949",
"I. c #B28C44",
"U. c #B68B4A",
"Y. c #B9934B",
"T. c #BE984B",
"R. c #B98954",
"E. c #BE9254",
"W. c #C48140",
"Q. c #CB8D44",
"!. c #D78A41",
"~. c #DA9140",
"^. c #CB9F5A",
"/. c #E08E42",
"(. c #D2A145",
"). c #D5A349",
"_. c #DDB545",
"`. c #CDA555",
"'. c #D7B256",
"]. c #DBB455",
"[. c #E5B450",
"{. c #E4BA56",
"}. c #E2BE5C",
"|. c #DDB960",
" X c #ECCA59",
".X c #E6C362",
"XX c #F5DA63",
"oX c #F5D468",
"OX c #FEDD6D",
"+X c #868585",
"@X c None",
/* pixels */
"@X@X@X@X@X@X@X@X@X@X@X@X@X@X@X@X@X@X@X@X@X@X@X@X@X@X@X@X@X@X@X@X",
"@X@X@X@X@X@X@X@X@X@X@X@X. 4 9 ^ ^ 9 5 . @X@X@X@X@X@X@X@X@X@X@X@X",
"@X@X@X@X@X@X@X@X@X@X7 ( ' ` _ ( ( _ ` ' ( 8 @X@X@X@X@X@X@X@X@X@X",
"@X@X@X@X@X@X@X@X6 ` ` S @ o @ @ o . o @ 9 ` ` 7 @X@X@X@X@X@X@X@X",
"@X@X@X@X@X@X  / ` 9 . 5 ` ) ] ] 9 S ` ( 7 . 7 ' ( . @X@X@X@X@X@X",
"@X@X@X@X@X. ( ) 3 6 _ ] / 7 4 ; 3 5 7 / ' ] 6 o ) ` o @X@X@X@X@X",
"@X@X@X@X  / / @ ^ ] / @ O # * p a e e < & 7 ' ) @ / ` . @X@X@X@X",
"@X@X@X@XS ( @ 8 ( 8 o % < p j k n F K Q ! h 4 ` ( @ ) ( @X@X@X@X",
"@X@X@X3 ( 5 _ _ 7 X - < l D B F K Q *.2.8.r.~ ; _ ` @ ` 8 @X@X@X",
"@X@X@X/ 7 / ' 9 o 1 s z D M v b F L %.e.K.K.K.W 6 ' 4 8 ` . @X@X",
"@X@X3 / 6 ] ) o - s A D r n B $.6.9.8.8.P.L.w.2.f 7 9 @ ` 8 @X@X",
"@X@X7 8 ` [ 6 $ 2 Z P t Y :.R 6.B.U.I.T.K.w.9.$.F ; ` / ^ ) @X@X",
"@X  ^ 8 ` ' + 1 l U r B :.q.*.B.E.T..X.XY.%.2.Q F > / ` 4 ' . @X",
"@Xo 9 ^ ` / $ d D B n V &.C.7.R.U.|.OXoX`.8. .Q F q 6 { 6 _ 6 @X",
"@X@ 9 / [ S % k T V @.>...Z.7.%.S.].}.'.h.L m T M p 4 ' 7 ) ^ @X",
"@X3 9 / _ 8 , B @.} =.s.l.y.o.3._._.^.E.e.Q c F x p 4 ( 6 / / @X",
"@X3 8 ( ` 9 < J =.X.,.i.z.Q.3.=.a.4.9.C.q.@.u D z s 4 ' / / ^ @X",
"@X+ 7 ) +X^ = L 1.,.t.x.G.).D.;.| 7.e.R :.I j D d - 5 ] 8 ( S @X",
"@Xo 7 / [ _ *  .y.p.p.H.{.XX{.D.Z.>.V.@.M k z A s $ 9 ' 7 _ 6 @X",
"@X  6 ^ ' ' - K y.v.v.H.[. X(.G.d.=.0.:.z 0 D d 1 + / ' 7 ` . @X",
"@X@X4 6 ] { 9 j y.b.J.~.~.H.Q.j.1. .&.I r A Z 2 ; 5 [ / S / @X@X",
"@X@X+ 6 ( ` ` - @.j.J./.n.x.p.u.X.C b r A Z s : o / _ 9 ( 7 @X@X",
"@X@X@X6 7 ` ` ( , 5.k.F.F.x.<.O.} V B D Z 2 & X 9 ) ^ 9 ( . @X@X",
"@X@X@Xo 6 / ' ' / > $.y.i.u.1.-.#.T N d , & o 8 _ ( 8 ( 6 @X@X@X",
"@X@X@X@X4 6 ( ' ' ( : j K @. .J B k a > X O ^ _ ) ^ / ^ @X@X@X@X",
"@X@X@X@X  6 6 ( ' ' { 9 : * = q * % X + 7 ` { ` ^ 9 ^ . @X@X@X@X",
"@X@X@X@X@X  6 7 ^ ' { +X' ) / 9 S / ( ' { [ _ ^ ^ ^ o @X@X@X@X@X",
"@X@X@X@X@X@X  3 6 8 / ' ` { { { { { { ` ` / 8 ^ 8   @X@X@X@X@X@X",
"@X@X@X@X@X@X@X@X+ 6 6 7 ^ ( _ _ ` ( ( S 8 8 8 3 @X@X@X@X@X@X@X@X",
"@X@X@X@X@X@X@X@X@X@X+ 3 6 6 6 7 6 7 6 8 7 @   @X@X@X@X@X@X@X@X@X",
"@X@X@X@X@X@X@X@X@X@X@X@X  o @ @ ; @ o   @X@X@X@X@X@X@X@X@X@X@X@X",
"@X@X@X@X@X@X@X@X@X@X@X@X@X@X@X@X@X@X@X@X@X@X@X@X@X@X@X@X@X@X@X@X"
};
